<svg width="33" height="34" viewBox="0 0 33 34" fill="none" xmlns="http://www.w3.org/2000/svg">
<g clip-path="url(#clip0_12_151)">
<path d="M12.2275 26.4418C5.48337 28.4651 5.48337 23.0698 2.78571 22.3953M21.6694 30.4883V25.2683C21.72 24.6252 21.6331 23.9786 21.4145 23.3716C21.1958 22.7646 20.8505 22.2111 20.4015 21.7479C24.6368 21.2758 29.0879 19.6707 29.0879 12.3061C29.0876 10.4229 28.3632 8.61189 27.0647 7.24795C27.6796 5.60036 27.6361 3.77922 26.9433 2.16285C26.9433 2.16285 25.3517 1.69076 21.6694 4.15912C18.5778 3.32126 15.319 3.32126 12.2275 4.15912C8.54522 1.69076 6.9536 2.16285 6.9536 2.16285C6.26081 3.77922 6.21733 5.60036 6.8322 7.24795C5.52401 8.622 4.79887 10.4494 4.80895 12.3465C4.80895 19.6572 9.2601 21.2623 13.4954 21.7884C13.0517 22.2469 12.7094 22.7938 12.491 23.3934C12.2725 23.9929 12.1828 24.6318 12.2275 25.2683V30.4883" stroke="white" stroke-width="4" stroke-linecap="round" stroke-linejoin="round"/>
</g>
<defs>
<clipPath id="clip0_12_151">
<rect width="32.372" height="32.372" fill="white" transform="translate(0.0880127 0.814026)"/>
</clipPath>
</defs>
</svg>
