<svg width="33" height="34" viewBox="0 0 33 34" fill="none" xmlns="http://www.w3.org/2000/svg">
<g clip-path="url(#clip0_12_152)">
<path d="M22.1076 11.6047C24.254 11.6047 26.3125 12.4573 27.8302 13.975C29.348 15.4928 30.2006 17.5513 30.2006 19.6976V29.1395H24.8053V19.6976C24.8053 18.9822 24.5211 18.296 24.0152 17.7901C23.5092 17.2842 22.8231 17 22.1076 17C21.3922 17 20.706 17.2842 20.2001 17.7901C19.6942 18.296 19.41 18.9822 19.41 19.6976V29.1395H14.0146V19.6976C14.0146 17.5513 14.8673 15.4928 16.385 13.975C17.9027 12.4573 19.9612 11.6047 22.1076 11.6047Z" stroke="white" stroke-width="4" stroke-linecap="round" stroke-linejoin="round"/>
<path d="M8.6193 12.9535H3.22397V29.1395H8.6193V12.9535Z" stroke="white" stroke-width="4" stroke-linecap="round" stroke-linejoin="round"/>
<path d="M5.92163 8.90699C7.41151 8.90699 8.6193 7.6992 8.6193 6.20932C8.6193 4.71944 7.41151 3.51166 5.92163 3.51166C4.43175 3.51166 3.22397 4.71944 3.22397 6.20932C3.22397 7.6992 4.43175 8.90699 5.92163 8.90699Z" stroke="white" stroke-width="4" stroke-linecap="round" stroke-linejoin="round"/>
</g>
<defs>
<clipPath id="clip0_12_152">
<rect width="32.372" height="32.372" fill="white" transform="translate(0.526306 0.813965)"/>
</clipPath>
</defs>
</svg>
