<svg width="33" height="34" viewBox="0 0 33 34" fill="none" xmlns="http://www.w3.org/2000/svg">
<g clip-path="url(#clip0_12_153)">
<path d="M31.3714 4.86049C30.0798 5.77159 28.6496 6.46844 27.1361 6.9242C26.3237 5.99015 25.2441 5.32812 24.0433 5.02764C22.8424 4.72717 21.5782 4.80275 20.4217 5.24417C19.2652 5.68558 18.2722 6.47153 17.5769 7.49572C16.8816 8.51991 16.5177 9.73292 16.5343 10.9707V12.3195C14.1639 12.381 11.8151 11.8553 9.69705 10.7892C7.57903 9.72314 5.75753 8.1498 4.39478 6.20932C4.39478 6.20932 -1.00055 18.3488 11.1389 23.7441C8.36106 25.6298 5.05187 26.5752 1.69711 26.4418C13.8366 33.186 28.6738 26.4418 28.6738 10.9302C28.6725 10.5545 28.6364 10.1797 28.5659 9.8107C29.9425 8.45309 30.9139 6.73902 31.3714 4.86049Z" stroke="white" stroke-width="4" stroke-linecap="round" stroke-linejoin="round"/>
</g>
<defs>
<clipPath id="clip0_12_153">
<rect width="32.372" height="32.372" fill="white" transform="translate(0.348267 0.813965)"/>
</clipPath>
</defs>
</svg>
